<?xml version="1.0" encoding="UTF-8"?>
<svg width="124px" height="44px" viewBox="0 0 124 44" version="1.1" xmlns="http://www.w3.org/2000/svg" xmlns:xlink="http://www.w3.org/1999/xlink">
    <!-- Generator: Sketch 52.3 (67297) - http://www.bohemiancoding.com/sketch -->
    <title>advantage</title>
    <desc>Created with Sketch.</desc>
    <g id="Symbols" stroke="none" stroke-width="1" fill="none" fill-rule="evenodd">
        <g id="advantage" fill-rule="nonzero">
            <g id="Group" transform="translate(0.000000, 7.000000)">
                <path d="M122.947368,14.6072874 C122.947368,22.5748988 116.242915,29.0850202 108.016194,29.0850202 L15.0607287,29.0850202 C6.8340081,29.0850202 0.129554656,22.5748988 0.129554656,14.6072874 C0.129554656,6.63967611 6.8340081,0.129554656 15.0607287,0.129554656 L107.983806,0.129554656 C116.210526,0.0971659919 122.947368,6.63967611 122.947368,14.6072874" id="Shape" fill="#9B9B9B"></path>
                <path d="M56.5506073,9.65182186 L56.5506073,20.6315789 L53.4736842,20.6315789 L53.4736842,19.6275304 C52.7611336,20.5020243 51.5951417,20.9878543 50.4615385,20.9878543 C47.2550607,20.9878543 45.4089069,18.0728745 45.4089069,15.0931174 C45.4089069,12.1781377 47.2550607,9.29554656 50.3967611,9.29554656 C51.5303644,9.29554656 52.6963563,9.78137652 53.4736842,10.6882591 L53.4736842,9.65182186 L56.5506073,9.65182186 Z M51.1740891,18.2024291 C52.7935223,18.2024291 53.7975709,16.582996 53.7975709,15.1255061 C53.7975709,13.6356275 52.7935223,12.0809717 51.1740891,12.0809717 C49.5546559,12.0809717 48.582996,13.6680162 48.582996,15.1578947 C48.582996,16.6153846 49.5546559,18.2024291 51.1740891,18.2024291 Z M75.0445344,12.3076923 L75.0445344,20.6315789 L71.902834,20.6315789 L71.902834,12.3076923 L70.0890688,12.3076923 L70.0890688,9.68421053 L71.902834,9.68421053 L71.902834,5.02024291 L75.0445344,5.02024291 L75.0445344,9.65182186 L76.9554656,9.65182186 L76.9554656,12.3076923 L75.0445344,12.3076923 Z M29.4412955,20.6315789 L29.4412955,19.5951417 C28.7611336,20.5020243 27.5951417,20.9878543 26.4615385,20.9878543 C23.2550607,20.9878543 21.4089069,18.0728745 21.4089069,15.0931174 C21.4089069,12.1781377 23.2550607,9.29554656 26.4291498,9.29554656 C27.562753,9.29554656 28.7287449,9.78137652 29.4089069,10.6558704 L29.4089069,5.02024291 L32.582996,5.02024291 L32.582996,20.5991903 L29.4412955,20.5991903 L29.4412955,20.6315789 Z M27.1740891,18.2024291 C28.7935223,18.2024291 29.7651822,16.582996 29.7651822,15.1255061 C29.7651822,13.6356275 28.7935223,12.048583 27.1740891,12.048583 C25.5546559,12.048583 24.582996,13.6356275 24.582996,15.1255061 C24.582996,16.6153846 25.5546559,18.2024291 27.1740891,18.2024291 Z M19.854251,9.65182186 L19.854251,20.6315789 L16.7773279,20.6315789 L16.7773279,19.6275304 C16.0647773,20.5020243 14.8987854,20.9878543 13.7651822,20.9878543 C10.5587045,20.9878543 8.71255061,18.0728745 8.71255061,15.0931174 C8.71255061,12.1781377 10.5587045,9.29554656 13.7327935,9.29554656 C14.8663968,9.29554656 16.0323887,9.78137652 16.8097166,10.6882591 L16.8097166,9.65182186 L19.854251,9.65182186 Z M14.4777328,18.2024291 C16.097166,18.2024291 17.1012146,16.582996 17.1012146,15.1255061 C17.1012146,13.6356275 16.097166,12.048583 14.4777328,12.048583 C12.8582996,12.048583 11.8866397,13.6356275 11.8866397,15.1255061 C11.8866397,16.6153846 12.8582996,18.2024291 14.4777328,18.2024291 Z M62.2186235,9.65182186 L62.2186235,10.6558704 C62.8987854,9.68421053 64,9.29554656 65.1336032,9.29554656 C68.0809717,9.29554656 68.9230769,11.3684211 68.9230769,13.9271255 L68.9230769,20.6315789 L65.7813765,20.6315789 L65.7813765,14.8016194 C65.7813765,13.4736842 65.8461538,11.7894737 64.097166,11.7894737 C62.2510121,11.7894737 62.2186235,13.8623482 62.2186235,15.1902834 L62.2186235,20.6315789 L59.0769231,20.6315789 L59.0769231,9.65182186 L62.2186235,9.65182186 Z M37.1821862,9.68421053 L39.7408907,15.8704453 L42.0080972,9.68421053 L45.4089069,9.68421053 L40.3562753,20.6315789 L38.7368421,20.6315789 L33.7165992,9.68421053 L37.1821862,9.68421053 Z M101.668016,9.65182186 L101.668016,19.3036437 C101.668016,22.8663968 100.469636,25.8137652 96.3562753,25.8137652 L93.4736842,25.8137652 L93.4736842,23.1902834 L96.291498,23.1902834 C98.4939271,23.1902834 98.5587045,21.2469636 98.5587045,19.5951417 C97.8461538,20.437247 96.6801619,20.9878543 95.51417,20.9878543 C92.3076923,20.9878543 90.5910931,18.1700405 90.5910931,15.2226721 C90.5910931,12.2105263 92.437247,9.29554656 95.6761134,9.29554656 C96.7773279,9.29554656 97.8785425,9.84615385 98.5263158,10.6882591 L98.5587045,9.65182186 L101.668016,9.65182186 Z M96.3562753,18.2024291 C97.9757085,18.2024291 98.9473684,16.6153846 98.9473684,15.1578947 C98.9473684,13.6680162 97.9757085,12.0809717 96.3562753,12.0809717 C94.7368421,12.0809717 93.7651822,13.7004049 93.7651822,15.1578947 C93.7651822,16.6153846 94.7368421,18.2024291 96.3562753,18.2024291 Z M106.720648,13.7004049 L110.898785,13.7004049 C110.736842,12.5991903 110.024291,11.4979757 108.825911,11.4979757 C107.562753,11.4979757 106.850202,12.5668016 106.720648,13.7004049 Z M113.846154,15.6437247 L106.623482,15.6437247 C106.623482,17.0364372 107.174089,18.5910931 108.793522,18.5910931 C109.82996,18.5910931 110.477733,17.9757085 110.898785,17.1012146 L113.781377,17.5546559 C113.036437,19.757085 111.093117,20.9878543 108.793522,20.9878543 C105.392713,20.9878543 103.319838,18.5910931 103.319838,15.2550607 C103.319838,11.9190283 105.068826,9.29554656 108.631579,9.29554656 C112.226721,9.29554656 113.846154,11.951417 113.846154,15.2550607 L113.846154,15.6437247 Z M88.9716599,9.65182186 L88.9716599,20.6315789 L85.8947368,20.6315789 L85.8947368,19.6275304 C85.1821862,20.5020243 84.0161943,20.9878543 82.8825911,20.9878543 C79.6761134,20.9878543 77.8299595,18.0728745 77.8299595,15.0931174 C77.8299595,12.1781377 79.6761134,9.29554656 82.8502024,9.29554656 C83.9838057,9.29554656 85.1497976,9.78137652 85.9271255,10.6882591 L85.9271255,9.65182186 L88.9716599,9.65182186 Z M83.5951417,18.2024291 C85.2145749,18.2024291 86.2186235,16.582996 86.2186235,15.1255061 C86.2186235,13.6356275 85.2145749,12.048583 83.5951417,12.048583 C81.9757085,12.048583 81.0040486,13.6356275 81.0040486,15.1255061 C81.0040486,16.6153846 81.9757085,18.2024291 83.5951417,18.2024291 Z" id="Shape" fill="#FFFFFF"></path>
            </g>
        </g>
    </g>
</svg>